<?xml version="1.0" encoding="UTF-8" standalone="no"?>
<!DOCTYPE svg PUBLIC "-//W3C//DTD SVG 1.1//EN" "http://www.w3.org/Graphics/SVG/1.1/DTD/svg11.dtd">
<svg xmlns="http://www.w3.org/2000/svg" version="1.1" viewBox="0.00 0.00 1024.00 1024.00">
<g stroke-width="2.00" fill="none" stroke-linecap="butt">
<path stroke="#828383" stroke-opacity="0.988" vector-effect="non-scaling-stroke" d="
  M 601.76 406.02
  Q 603.06 406.75 603.08 409.26
  Q 603.21 432.76 603.16 456.25
  C 603.15 459.78 598.90 459.15 596.00 459.15
  Q 420.16 459.08 244.32 459.18
  Q 244.05 459.18 243.98 459.44
  Q 243.93 459.67 244.00 459.71"
/>
<path stroke="#828383" stroke-opacity="0.988" vector-effect="non-scaling-stroke" d="
  M 603.46 692.02
  L 602.64 743.97
  A 0.74 0.73 84.6 0 1 602.06 744.68
  Q 600.18 745.09 598.25 745.09
  Q 422.85 745.11 247.46 745.09
  Q 247.37 745.09 246.03 745.04
  Q 243.62 744.95 243.96 746.23"
/>
<path stroke="#828383" stroke-opacity="0.988" vector-effect="non-scaling-stroke" d="
  M 823.18 244.39
  Q 822.90 245.79 822.99 247.64
  Q 823.12 250.49 823.12 250.87
  Q 823.14 515.81 823.10 780.75
  Q 823.10 785.48 821.98 789.75"
/>
<path stroke="#828383" stroke-opacity="0.988" vector-effect="non-scaling-stroke" d="
  M 719.30 376.03
  L 721.33 373.72"
/>
<path stroke="#828383" stroke-opacity="0.988" vector-effect="non-scaling-stroke" d="
  M 631.51 762.91
  Q 627.77 763.93 624.54 762.73"
/>
<path stroke="#828383" stroke-opacity="0.988" vector-effect="non-scaling-stroke" d="
  M 717.97 509.31
  Q 719.16 508.22 717.97 507.47
  A 0.99 0.97 60.5 0 0 717.45 507.32
  L 637.57 507.21
  A 0.46 0.46 0.0 0 0 637.11 507.67
  L 637.20 569.54
  Q 637.20 569.98 637.64 569.97
  L 638.55 569.96"
/>
<path stroke="#828383" stroke-opacity="0.988" vector-effect="non-scaling-stroke" d="
  M 716.28 591.85
  Q 715.09 591.46 714.50 591.46
  Q 675.97 591.19 637.52 591.24
  A 0.36 0.36 0.0 0 0 637.16 591.60
  L 637.13 691.48
  Q 637.13 691.93 637.57 692.01
  Q 638.05 692.11 638.54 691.99"
/>
</g>
<path fill="#ffffff" d="
  M 601.76 406.02
  Q 603.06 406.75 603.08 409.26
  Q 603.21 432.76 603.16 456.25
  C 603.15 459.78 598.90 459.15 596.00 459.15
  Q 420.16 459.08 244.32 459.18
  Q 244.05 459.18 243.98 459.44
  Q 243.93 459.67 244.00 459.71
  L 244.00 691.50
  A 0.52 0.51 0.0 0 0 244.52 692.01
  L 603.46 692.02
  L 602.64 743.97
  A 0.74 0.73 84.6 0 1 602.06 744.68
  Q 600.18 745.09 598.25 745.09
  Q 422.85 745.11 247.46 745.09
  Q 247.37 745.09 246.03 745.04
  Q 243.62 744.95 243.96 746.23
  Q 244.03 764.05 244.00 782.59
  Q 243.99 788.87 242.65 792.25
  C 239.72 799.58 233.18 803.99 225.18 804.00
  C 222.27 804.01 218.92 804.24 216.31 803.64
  C 205.89 801.28 201.99 789.45 201.99 779.89
  Q 201.99 514.07 201.99 248.25
  C 201.99 244.93 202.82 241.44 204.83 238.62
  C 210.41 230.79 218.27 225.78 228.28 229.00
  Q 238.97 232.43 242.55 242.07
  Q 243.95 245.84 243.96 253.38
  Q 244.05 329.31 243.98 405.40
  A 0.62 0.62 0.0 0 0 244.60 406.02
  L 601.76 406.02
  Z"
/>
<path fill="#ffffff" d="
  M 823.18 244.39
  Q 822.90 245.79 822.99 247.64
  Q 823.12 250.49 823.12 250.87
  Q 823.14 515.81 823.10 780.75
  Q 823.10 785.48 821.98 789.75
  C 820.16 794.66 814.18 803.56 808.00 803.90
  C 801.80 804.25 793.18 805.05 788.47 800.84
  Q 781.94 795.01 781.95 786.26
  Q 781.98 769.04 782.00 751.85
  C 782.00 749.54 781.56 747.66 780.97 745.50
  Q 780.85 745.05 780.40 744.96
  C 778.89 744.64 777.34 744.05 775.83 744.04
  Q 765.29 744.00 754.84 743.95
  A 0.73 0.73 0.0 0 1 754.12 743.22
  L 753.91 692.69
  Q 753.90 692.03 754.56 692.03
  L 781.05 691.99
  A 0.92 0.91 -89.7 0 0 781.96 691.08
  Q 782.21 578.57 781.97 465.75
  Q 781.97 462.68 780.95 459.78
  A 1.11 1.09 -88.3 0 0 780.37 459.15
  Q 777.88 458.03 776.62 458.03
  Q 765.95 458.03 755.01 457.94
  A 0.97 0.97 0.0 0 1 754.05 456.97
  L 753.96 406.54
  A 0.50 0.50 0.0 0 1 754.46 406.03
  L 781.27 406.00
  A 0.69 0.69 0.0 0 0 781.96 405.31
  Q 782.19 325.02 781.96 245.00
  Q 781.95 240.52 783.90 237.44
  C 786.58 233.20 792.13 229.16 797.44 228.21
  C 801.06 227.55 804.61 228.64 808.34 229.53
  C 813.42 230.74 816.91 233.05 819.52 237.71
  Q 821.15 240.62 823.18 244.39
  Z"
/>
<path fill="#010303" fill-opacity="0.973" d="
  M 823.18 244.39
  Q 824.23 254.92 824.22 268.25
  Q 824.10 430.12 824.23 761.67
  C 824.23 768.85 823.90 776.55 823.77 783.99
  Q 823.74 786.10 821.98 789.75
  Q 823.10 785.48 823.10 780.75
  Q 823.14 515.81 823.12 250.87
  Q 823.12 250.49 822.99 247.64
  Q 822.90 245.79 823.18 244.39
  Z"
/>
<path fill="#149999" d="
  M 268.25 286.27
  C 268.36 281.87 271.41 275.35 275.26 272.61
  C 281.67 268.05 285.13 263.26 293.37 260.80
  Q 299.00 259.12 304.52 257.10
  Q 307.30 256.08 310.12 256.05
  Q 329.09 255.87 348.02 256.09
  C 355.59 256.17 363.41 258.84 370.72 260.69
  Q 370.77 260.71 377.84 262.06
  C 382.04 262.87 386.27 265.08 389.55 266.14
  C 401.19 269.93 414.32 276.01 420.63 287.07
  C 428.19 300.32 422.40 313.97 410.08 321.31
  Q 402.26 325.96 393.52 327.54
  C 388.44 328.46 384.12 329.77 379.32 329.84
  Q 374.57 329.92 369.94 330.95
  Q 365.83 331.86 362.95 331.90
  Q 345.95 332.13 328.97 331.85
  Q 326.01 331.80 321.64 330.87
  C 316.31 329.74 310.73 330.12 305.89 328.99
  Q 296.68 326.83 287.82 323.56
  Q 284.24 322.23 281.01 319.79
  C 274.15 314.61 267.90 310.55 267.99 300.71
  Q 268.05 293.47 268.25 286.27
  Z"
/>
<path fill="#149999" d="
  M 603.59 372.59
  C 600.98 377.87 602.20 385.34 601.87 391.42
  Q 601.84 391.98 601.27 391.98
  L 260.73 392.00
  Q 260.18 392.00 260.16 391.45
  Q 259.58 375.06 260.10 369.77
  C 260.56 365.14 262.53 360.52 266.08 356.89
  C 268.54 354.37 271.23 351.22 274.00 349.40
  C 279.95 345.48 285.71 344.01 293.34 344.01
  Q 512.50 343.98 731.66 344.01
  C 741.04 344.01 752.62 348.36 758.61 355.86
  Q 762.54 360.78 764.56 366.73
  C 766.81 373.37 766.06 382.12 765.96 389.52
  Q 765.95 390.01 765.47 390.01
  L 754.75 390.00
  Q 754.10 390.00 754.08 389.35
  C 753.86 382.66 754.46 377.52 751.16 370.67
  Q 746.64 361.30 736.67 358.30
  Q 732.38 357.01 728.01 356.02
  C 719.54 354.09 705.86 366.57 704.25 374.45
  Q 703.90 376.18 704.03 379.05
  Q 704.30 384.71 702.96 390.21
  Q 702.84 390.69 702.37 390.86
  Q 699.02 392.03 697.51 392.02
  Q 677.84 391.90 653.50 392.05
  Q 652.13 392.06 652.13 390.68
  C 652.14 384.81 652.59 378.46 650.57 373.10
  Q 645.17 358.75 628.50 356.24
  Q 623.15 355.43 618.95 357.48
  Q 608.56 362.54 603.59 372.59
  Z"
/>
<path fill="#ffffff" d="
  M 719.30 376.03
  L 721.33 373.72
  C 727.60 370.12 737.89 371.48 737.90 380.75
  Q 737.98 436.21 738.01 491.67
  Q 738.01 491.72 738.36 497.30
  C 738.52 499.86 738.00 502.65 738.00 504.91
  Q 737.99 628.13 738.00 751.35
  Q 738.00 757.29 736.56 759.88
  C 732.70 766.81 721.45 763.28 718.86 756.91
  Q 717.97 754.73 717.97 748.55
  Q 717.96 731.77 718.18 714.95
  A 0.94 0.93 -89.7 0 0 717.25 714.00
  L 636.50 713.99
  Q 636.01 713.99 636.01 714.48
  Q 635.98 734.33 635.94 754.05
  C 635.93 758.12 634.88 760.89 631.51 762.91
  Q 627.77 763.93 624.54 762.73
  C 619.60 760.26 618.06 756.89 618.03 751.20
  Q 617.98 741.46 618.12 731.75
  C 618.35 716.76 617.95 700.15 617.95 686.75
  Q 617.94 560.06 618.11 433.37
  C 618.13 416.04 617.60 396.57 618.08 379.99
  C 618.25 374.18 622.86 371.76 628.14 372.17
  Q 636.01 372.77 635.99 382.50
  Q 635.90 433.99 636.03 485.26
  A 0.74 0.74 0.0 0 0 636.77 486.00
  L 715.22 486.00
  Q 717.98 486.00 717.98 483.23
  Q 718.04 432.56 717.99 380.41
  C 717.98 378.82 718.71 377.44 719.30 376.03
  Z
  M 638.55 569.96
  L 717.37 569.94
  Q 717.95 569.94 717.95 569.37
  L 717.97 509.31
  Q 719.16 508.22 717.97 507.47
  A 0.99 0.97 60.5 0 0 717.45 507.32
  L 637.57 507.21
  A 0.46 0.46 0.0 0 0 637.11 507.67
  L 637.20 569.54
  Q 637.20 569.98 637.64 569.97
  L 638.55 569.96
  Z
  M 638.54 691.99
  L 717.50 691.98
  Q 718.00 691.98 718.00 691.49
  L 718.00 592.67
  Q 718.00 592.11 717.44 592.02
  L 716.28 591.85
  Q 715.09 591.46 714.50 591.46
  Q 675.97 591.19 637.52 591.24
  A 0.36 0.36 0.0 0 0 637.16 591.60
  L 637.13 691.48
  Q 637.13 691.93 637.57 692.01
  Q 638.05 692.11 638.54 691.99
  Z"
/>
<path fill="#010303" fill-opacity="0.973" d="
  M 721.33 373.72
  L 719.30 376.03
  Q 719.32 374.19 721.33 373.72
  Z"
/>
<path fill="#010303" fill-opacity="0.973" d="
  M 601.76 406.02
  L 603.12 405.99
  A 0.74 0.74 0.0 0 1 603.88 406.73
  Q 603.95 430.05 603.89 452.98
  C 603.88 454.98 603.40 456.59 602.86 458.46
  Q 602.72 458.94 602.24 459.08
  Q 598.82 460.12 595.25 460.12
  Q 419.94 460.27 244.63 460.22
  Q 244.34 460.22 244.25 459.95
  Q 244.16 459.68 244.00 459.71
  Q 243.93 459.67 243.98 459.44
  Q 244.05 459.18 244.32 459.18
  Q 420.16 459.08 596.00 459.15
  C 598.90 459.15 603.15 459.78 603.16 456.25
  Q 603.21 432.76 603.08 409.26
  Q 603.06 406.75 601.76 406.02
  Z"
/>
<rect fill="#ffffff" x="652.00" y="408.01" width="49.98" height="49.98" rx="0.64"/>
<path fill="#010303" fill-opacity="0.973" d="
  M 717.97 509.31
  Q 718.06 508.77 717.92 508.40
  Q 717.76 507.94 717.27 507.94
  L 639.28 508.19
  Q 637.91 508.19 637.91 509.56
  Q 637.97 539.35 637.95 568.95
  Q 637.95 569.32 638.10 569.52
  Q 638.26 569.76 638.55 569.96
  L 637.64 569.97
  Q 637.20 569.98 637.20 569.54
  L 637.11 507.67
  A 0.46 0.46 0.0 0 1 637.57 507.21
  L 717.45 507.32
  A 0.99 0.97 60.5 0 1 717.97 507.47
  Q 719.16 508.22 717.97 509.31
  Z"
/>
<path fill="#149999" d="
  M 287.68 607.83
  Q 283.91 606.24 279.08 602.84
  Q 274.60 599.69 271.94 596.06
  C 263.41 584.39 264.00 569.16 274.50 558.49
  C 279.68 553.23 283.68 548.42 291.20 545.45
  C 297.58 542.93 304.36 540.18 311.36 540.08
  Q 328.58 539.84 339.00 540.03
  C 343.59 540.11 348.06 541.66 352.67 541.89
  Q 363.42 542.41 373.54 545.84
  Q 379.43 547.83 383.12 548.70
  Q 390.37 550.40 392.76 551.45
  C 400.19 554.71 412.35 560.22 417.22 566.81
  C 421.28 572.32 424.34 576.55 424.05 583.25
  C 423.90 586.58 421.84 594.82 418.83 598.21
  C 415.28 602.21 410.20 607.80 404.89 609.19
  Q 398.33 610.91 391.89 612.94
  Q 389.31 613.75 386.01 613.88
  C 380.69 614.09 375.89 615.88 370.84 615.93
  Q 347.69 616.14 324.55 615.88
  C 320.08 615.83 315.70 614.20 310.99 613.92
  Q 306.73 613.66 304.11 612.95
  Q 292.33 609.79 287.68 607.83
  Z"
/>
<path fill="#010303" fill-opacity="0.973" d="
  M 716.28 591.85
  L 639.49 592.19
  Q 637.95 592.19 637.95 593.74
  L 637.94 690.59
  Q 637.94 691.04 638.18 691.42
  L 638.54 691.99
  Q 638.05 692.11 637.57 692.01
  Q 637.13 691.93 637.13 691.48
  L 637.16 591.60
  A 0.36 0.36 0.0 0 1 637.52 591.24
  Q 675.97 591.19 714.50 591.46
  Q 715.09 591.46 716.28 591.85
  Z"
/>
<path fill="#149999" d="
  M 263.53 644.96
  Q 268.73 635.58 279.01 631.45
  C 282.95 629.87 286.19 630.01 290.35 630.00
  Q 445.96 629.99 601.48 630.00
  A 0.52 0.52 0.0 0 1 602.00 630.52
  L 601.99 675.38
  A 0.62 0.62 0.0 0 1 601.37 676.00
  L 260.52 676.00
  A 0.51 0.51 0.0 0 1 260.01 675.50
  Q 259.95 664.99 260.04 654.25
  C 260.06 651.33 261.91 647.89 263.53 644.96
  Z"
/>
<rect fill="#149999" x="651.99" y="630.00" width="51.98" height="46.00" rx="0.55"/>
<path fill="#149999" d="
  M 753.46 657.75
  Q 753.49 657.45 753.18 657.03
  A 0.72 0.67 -65.1 0 1 753.06 656.67
  L 753.06 636.95
  Q 753.06 636.49 753.49 636.62
  C 760.40 638.64 765.74 650.99 765.92 657.00
  Q 766.20 666.20 765.88 675.41
  Q 765.86 675.97 765.29 675.98
  L 753.74 676.06
  Q 753.23 676.06 753.19 675.55
  Q 752.45 666.58 753.46 657.75
  Z"
/>
<path fill="#010303" fill-opacity="0.973" d="
  M 603.46 692.02
  Q 604.33 715.63 603.88 739.28
  C 603.84 741.17 603.35 742.69 602.91 744.49
  Q 602.79 744.99 602.30 745.12
  Q 598.15 746.24 596.25 746.24
  Q 420.20 746.26 243.96 746.23
  Q 243.62 744.95 246.03 745.04
  Q 247.37 745.09 247.46 745.09
  Q 422.85 745.11 598.25 745.09
  Q 600.18 745.09 602.06 744.68
  A 0.74 0.73 84.6 0 0 602.64 743.97
  L 603.46 692.02
  Z"
/>
<rect fill="#ffffff" x="652.00" y="728.02" width="50.00" height="15.98" rx="0.57"/>
<path fill="#010303" fill-opacity="0.973" d="
  M 624.54 762.73
  Q 627.77 763.93 631.51 762.91
  Q 627.82 765.23 624.54 762.73
  Z"
/>
</svg>
